<?xml version="1.0" encoding="UTF-8" standalone="no"?>
<!-- Created with Inkscape (http://www.inkscape.org/) -->

<svg
   width="27.897867mm"
   height="27.897026mm"
   viewBox="0 0 27.897868 27.897026"
   version="1.1"
   id="svg5"
   inkscape:version="1.2.1 (9c6d41e410, 2022-07-14)"
   sodipodi:docname="logo.svg"
   xmlns:inkscape="http://www.inkscape.org/namespaces/inkscape"
   xmlns:sodipodi="http://sodipodi.sourceforge.net/DTD/sodipodi-0.dtd"
   xmlns="http://www.w3.org/2000/svg"
   xmlns:svg="http://www.w3.org/2000/svg">
  <sodipodi:namedview
     id="namedview7"
     pagecolor="#ffffff"
     bordercolor="#000000"
     borderopacity="0.25"
     inkscape:showpageshadow="2"
     inkscape:pageopacity="0.0"
     inkscape:pagecheckerboard="0"
     inkscape:deskcolor="#d1d1d1"
     inkscape:document-units="mm"
     showgrid="false"
     inkscape:zoom="5.1754902"
     inkscape:cx="0.86948286"
     inkscape:cy="74.19587"
     inkscape:window-width="2498"
     inkscape:window-height="1417"
     inkscape:window-x="-8"
     inkscape:window-y="-8"
     inkscape:window-maximized="1"
     inkscape:current-layer="layer1" />
  <defs
     id="defs2" />
  <g
     inkscape:label="Layer 1"
     inkscape:groupmode="layer"
     id="layer1"
     transform="translate(-82.152782,-95.794391)">
    <path
       id="path9763-6"
       style="fill:#81480e;fill-opacity:1;stroke:none;stroke-width:0.714;stroke-dasharray:none;stroke-dashoffset:0;stroke-opacity:1"
       d="m 96.101717,96.151391 a 13.592016,13.592016 0 0 0 -13.591935,13.591939 13.592016,13.592016 0 0 0 13.164054,13.57901 8.5311584,8.5311584 0 0 1 -0.0062,-0.13177 8.5311584,8.5311584 0 0 1 8.531264,-8.53075 8.5311584,8.5311584 0 0 1 4.10621,1.0542 13.592016,13.592016 0 0 0 1.38854,-5.97069 13.592016,13.592016 0 0 0 -13.591933,-13.591939 z" />
    <path
       id="text343"
       style="font-weight:bold;font-size:40.154px;font-family:Verdana;-inkscape-font-specification:'Verdana Bold';fill:#ffffff;stroke-width:22.0245;stroke-dasharray:none"
       d="M 81.05234 108.5094 C 80.555644 108.5094 80.137373 108.52937 79.797528 108.56858 C 79.470754 108.60779 79.208983 108.65972 79.012919 108.72508 C 78.816855 108.79043 78.673162 108.87545 78.581666 108.98002 C 78.50324 109.08459 78.463881 109.20898 78.463881 109.35276 L 78.463881 133.25269 C 78.463881 133.39647 78.50324 133.52087 78.581666 133.62543 C 78.673162 133.73 78.816855 133.8213 79.012919 133.89973 C 79.208983 133.96508 79.470754 134.01758 79.797528 134.05679 C 80.137373 134.096 80.555644 134.11541 81.05234 134.11541 C 81.562107 134.11541 81.980377 134.096 82.307151 134.05679 C 82.633925 134.01758 82.895227 133.96508 83.091291 133.89973 C 83.287355 133.8213 83.42441 133.73 83.502835 133.62543 C 83.581261 133.52087 83.62062 133.39647 83.62062 133.25269 L 83.62062 121.21452 L 88.893268 129.49396 A 6.9170639 8.3882762 0 0 1 92.996042 126.62185 L 88.7966 120.27327 L 95.75719 111.15672 C 96.083964 110.64696 96.305906 110.27434 96.423545 110.03907 C 96.541183 109.80379 96.599988 109.57497 96.599988 109.35276 C 96.599988 109.22205 96.560628 109.10451 96.482203 108.99994 C 96.403777 108.89537 96.260084 108.81035 96.050949 108.74499 C 95.854885 108.66657 95.586945 108.60779 95.2471 108.56858 C 94.907256 108.52937 94.476178 108.5094 93.95334 108.5094 C 93.443573 108.5094 93.025302 108.52252 92.698529 108.54866 C 92.371755 108.57481 92.103815 108.62102 91.89468 108.68638 C 91.685545 108.75173 91.515299 108.84303 91.38459 108.96067 C 91.25388 109.06524 91.142909 109.20219 91.051413 109.37211 L 83.62062 120.15605 L 83.62062 109.35276 C 83.62062 109.20898 83.581261 109.08459 83.502835 108.98002 C 83.42441 108.87545 83.287355 108.79043 83.091291 108.72508 C 82.895227 108.65972 82.633925 108.60779 82.307151 108.56858 C 81.980377 108.52937 81.562107 108.5094 81.05234 108.5094 z "
       transform="scale(1.1012235,0.90808088)" />
  </g>
</svg>
